<svg width="41" height="41" viewBox="0 0 41 41" fill="none" xmlns="http://www.w3.org/2000/svg">
<mask id="mask0_22_66" style="mask-type:alpha" maskUnits="userSpaceOnUse" x="0" y="0" width="41" height="41">
<rect width="41" height="41" fill="#D9D9D9"/>
</mask>
<g mask="url(#mask0_22_66)">
<path d="M20.2019 26.059L24.3019 21.959L28.4019 26.059L29.8603 24.6005L25.7603 20.5005L29.8603 16.4005L28.4019 14.942L24.3019 19.042L20.2019 14.942L18.7429 16.4005L22.8429 20.5005L18.7429 24.6005L20.2019 26.059ZM16.0327 31.9464C15.605 31.9464 15.1999 31.8527 14.8172 31.6653C14.4345 31.478 14.1017 31.2081 13.8187 30.8556L5.97656 20.5005L13.8187 10.1455C14.1017 9.79297 14.4345 9.52306 14.8172 9.33571C15.1999 9.14836 15.605 9.05469 16.0327 9.05469H33.2967C34.052 9.05469 34.6986 9.32375 35.2365 9.86188C35.7743 10.4003 36.0432 11.0473 36.0432 11.803V29.2117C36.0432 29.9677 35.7743 30.6124 35.2365 31.146C34.6986 31.6796 34.052 31.9464 33.2967 31.9464H16.0327ZM8.7526 20.5005L15.6056 29.5282C15.6602 29.594 15.7232 29.6434 15.7944 29.6764C15.8655 29.7092 15.945 29.7255 16.0327 29.7255H33.2967C33.4501 29.7255 33.5761 29.6763 33.6746 29.5778C33.7731 29.4792 33.8224 29.3533 33.8224 29.1998V11.8013C33.8224 11.6478 33.7731 11.5218 33.6746 11.4233C33.5761 11.3248 33.4501 11.2755 33.2967 11.2755H16.0327C15.945 11.2755 15.8655 11.2919 15.7944 11.3246C15.7232 11.3577 15.6602 11.4071 15.6056 11.4728L8.7526 20.5005Z" fill="white"/>
</g>
</svg>
