<svg width="38" height="38" viewBox="0 0 38 38" fill="none" xmlns="http://www.w3.org/2000/svg">
<mask id="mask0_22_87" style="mask-type:alpha" maskUnits="userSpaceOnUse" x="0" y="0" width="38" height="38">
<rect width="38" height="38" fill="#D9D9D9"/>
</mask>
<g mask="url(#mask0_22_87)">
<path d="M7.91667 33.25C7.04583 33.25 6.30035 32.9399 5.68021 32.3198C5.06007 31.6997 4.75 30.9542 4.75 30.0833V7.91667C4.75 7.04583 5.06007 6.30035 5.68021 5.68021C6.30035 5.06007 7.04583 4.75 7.91667 4.75H30.0833C30.9542 4.75 31.6997 5.06007 32.3198 5.68021C32.9399 6.30035 33.25 7.04583 33.25 7.91667V30.0833C33.25 30.9542 32.9399 31.6997 32.3198 32.3198C31.6997 32.9399 30.9542 33.25 30.0833 33.25H7.91667ZM12.6667 30.0833V7.91667H7.91667V30.0833H12.6667ZM15.8333 30.0833H30.0833V7.91667H15.8333V30.0833Z" fill="white"/>
</g>
</svg>
