<svg width="25" height="25" viewBox="0 0 25 25" fill="none" xmlns="http://www.w3.org/2000/svg">
<mask id="mask0_49_7" style="mask-type:alpha" maskUnits="userSpaceOnUse" x="0" y="0" width="25" height="25">
<rect x="0.304688" y="0.679688" width="24" height="24" fill="#D9D9D9"/>
</mask>
<g mask="url(#mask0_49_7)">
<path d="M12.3047 21.6797C10.0047 21.6797 8.00052 20.9172 6.29219 19.3922C4.58385 17.8672 3.60469 15.963 3.35469 13.6797H5.40469C5.63802 15.413 6.40885 16.8464 7.71719 17.9797C9.02552 19.113 10.5547 19.6797 12.3047 19.6797C14.2547 19.6797 15.9089 19.0005 17.2672 17.6422C18.6255 16.2839 19.3047 14.6297 19.3047 12.6797C19.3047 10.7297 18.6255 9.07552 17.2672 7.71719C15.9089 6.35885 14.2547 5.67969 12.3047 5.67969C11.1547 5.67969 10.0797 5.94635 9.07969 6.47969C8.07969 7.01302 7.23802 7.74635 6.55469 8.67969H9.30469V10.6797H3.30469V4.67969H5.30469V7.02969C6.15469 5.96302 7.19219 5.13802 8.41719 4.55469C9.64219 3.97135 10.938 3.67969 12.3047 3.67969C13.5547 3.67969 14.7255 3.91719 15.8172 4.39219C16.9089 4.86719 17.8589 5.50885 18.6672 6.31719C19.4755 7.12552 20.1172 8.07552 20.5922 9.16719C21.0672 10.2589 21.3047 11.4297 21.3047 12.6797C21.3047 13.9297 21.0672 15.1005 20.5922 16.1922C20.1172 17.2839 19.4755 18.2339 18.6672 19.0422C17.8589 19.8505 16.9089 20.4922 15.8172 20.9672C14.7255 21.4422 13.5547 21.6797 12.3047 21.6797ZM15.1047 16.8797L11.3047 13.0797V7.67969H13.3047V12.2797L16.5047 15.4797L15.1047 16.8797Z" fill="white"/>
</g>
</svg>
