<svg width="15" height="30" viewBox="0 0 15 30" fill="none" xmlns="http://www.w3.org/2000/svg">
<path d="M8.003 2.72321C8.003 2.00893 8.27813 1.38393 8.82841 0.848213C9.37868 0.3125 10.0158 0.0297604 10.7399 0C11.2612 0 11.6956 0.17857 12.0431 0.535713C12.3907 0.892857 12.5789 1.33928 12.6079 1.875C12.6079 2.55952 12.3183 3.18452 11.7391 3.75C11.1598 4.31548 10.5227 4.61309 9.82758 4.64286C9.39316 4.64286 8.98769 4.49405 8.61119 4.19643C8.23469 3.89881 8.03196 3.40774 8.003 2.72321ZM0.921875 16.6964C0.921875 16.4583 1.0522 15.997 1.31286 15.3125C1.57351 14.628 1.92105 13.869 2.35548 13.0357C2.7899 12.2024 3.42706 11.4435 4.26695 10.7589C5.10683 10.0744 5.97568 9.74702 6.87349 9.77678C8.003 9.77678 8.94425 10.119 9.69726 10.8036C10.4503 11.4881 10.8412 12.4107 10.8702 13.5714C10.8702 14.0774 10.6675 14.9107 10.262 16.0714C9.85654 17.2321 9.27731 18.7946 8.52431 20.7589C7.77131 22.7232 7.16311 24.4048 6.69972 25.8036C6.55492 26.4583 6.48251 26.9345 6.48251 27.2321C6.48251 27.9762 6.72869 28.3482 7.22103 28.3482C7.48169 28.3482 7.75682 28.3036 8.04644 28.2143C8.33606 28.125 8.66912 27.9167 9.04562 27.5893C9.42212 27.2619 9.8131 26.7411 10.2186 26.0268C10.624 25.3125 10.986 24.4345 11.3046 23.3929C11.3915 23.0357 11.4639 22.8274 11.5218 22.7679C11.5798 22.7083 11.8259 22.6786 12.2604 22.6786C12.8396 22.6786 13.1292 22.8274 13.1292 23.125C13.1292 23.3631 12.9989 23.8244 12.7382 24.5089C12.4776 25.1935 12.1156 25.9524 11.6522 26.7857C11.1888 27.619 10.5371 28.3631 9.69726 29.0179C8.85737 29.6726 7.95956 30 7.00382 30C6.07705 30 5.22268 29.6875 4.44072 29.0625C3.65875 28.4375 3.25329 27.4851 3.22433 26.2054C3.22433 25.6994 3.29673 25.2232 3.44154 24.7768C3.58635 24.3304 4.20902 22.6339 5.30957 19.6875C6.41011 16.6815 7.04726 14.881 7.22103 14.2857C7.3948 13.6905 7.49617 13.1101 7.52513 12.5446C7.52513 11.8304 7.27896 11.4732 6.78661 11.4732H6.69972C5.83087 11.4732 5.03443 11.9643 4.31039 12.9464C3.58635 13.9286 3.03608 15.1786 2.65957 16.6964C2.63061 16.7262 2.60165 16.7708 2.57269 16.8304C2.54373 16.8899 2.52925 16.9345 2.52925 16.9643C2.52925 16.994 2.50029 17.0238 2.44236 17.0536C2.38444 17.0833 2.341 17.0982 2.31203 17.0982C2.28307 17.0982 2.22515 17.0982 2.13826 17.0982C2.05138 17.0982 1.93553 17.0982 1.79072 17.0982H1.18253C1.00876 16.9196 0.921875 16.7857 0.921875 16.6964Z" fill="white"/>
</svg>
