<svg width="40" height="39" viewBox="0 0 40 39" fill="none" xmlns="http://www.w3.org/2000/svg">
<g clip-path="url(#clip0_21_178)">
<path d="M5.78347 39H5.70512C5.39173 39 5.15669 38.8178 5 38.4535V19.4805L5.03917 0.507507C5.30033 0.16917 5.54843 0 5.78347 0C6.12297 0 6.38413 0.195194 6.56693 0.585587V38.4535C6.35801 38.8178 6.12297 39 5.86181 39H5.78347Z" fill="white"/>
<path d="M24.8237 16.0863C24.5625 16.0863 23.8704 15.9432 22.7475 15.6569C21.6245 15.3706 20.8019 15.2275 20.2795 15.2275C19.7572 15.2275 19.3133 15.2795 18.9476 15.3836C18.582 15.4877 18.2817 15.6178 18.0467 15.774C17.8116 15.9302 17.6549 16.0733 17.5766 16.2034C17.4982 16.3336 17.4068 16.4767 17.3024 16.6329L17.224 16.789C17.1457 16.8671 16.9498 16.9061 16.6364 16.9061C16.088 16.9061 15.8138 16.802 15.8138 16.5938C15.8138 16.4637 15.853 16.2815 15.9313 16.0473C16.2708 15.0323 16.8323 14.1604 17.6158 13.4317C18.3992 12.7029 19.261 12.2605 20.2012 12.1043C20.5146 12.0523 20.7366 12.0263 20.8671 12.0263C21.52 12.0263 22.1076 12.2475 22.6299 12.6899C23.1523 13.1324 23.6485 13.5618 24.1185 13.9782C24.5886 14.3946 25.0848 14.6158 25.6071 14.6419C26.1817 14.6419 26.7562 14.2124 27.3307 13.3536C27.9053 12.4947 28.2056 12.0653 28.2317 12.0653C28.2579 12.0393 28.4537 12.0263 28.8193 12.0263H29.3286C29.4853 12.1824 29.5636 12.2865 29.5636 12.3386C29.5636 12.4427 29.4983 12.6249 29.3678 12.8851C29.2372 13.1454 29.0544 13.4186 28.8193 13.7049C28.5843 13.9912 28.3623 14.2775 28.1534 14.5638C27.9445 14.8501 27.7617 15.0973 27.605 15.3055L27.3307 15.6569C26.2078 16.9842 24.4319 18.741 22.0032 20.9272C19.5744 23.1133 18.0728 24.5187 17.4982 25.1434L17.0282 25.6118L17.6158 25.6509C18.1903 25.6509 19.026 25.794 20.1228 26.0803C21.2197 26.3666 22.0423 26.5097 22.5908 26.5097C23.5832 26.5097 24.4972 26.2625 25.3329 25.768C26.1686 25.2735 26.717 24.6228 26.9782 23.816C27.0827 23.5818 27.1741 23.4387 27.2524 23.3866C27.3307 23.3346 27.5266 23.3085 27.84 23.3085C28.3362 23.3085 28.5843 23.4387 28.5843 23.6989C28.5843 23.8291 28.5712 23.9462 28.5451 24.0503C28.1012 25.6639 27.2393 27.0042 25.9597 28.0713C24.68 29.1384 23.4004 29.6849 22.1207 29.7109C21.4417 29.7109 20.841 29.4897 20.3187 29.0473C19.7964 28.6048 19.2872 28.1624 18.791 27.7199C18.2948 27.2775 17.7986 27.0563 17.3024 27.0563C16.1533 27.0563 15.1217 27.8371 14.2077 29.3986C14.051 29.6068 13.829 29.7109 13.5417 29.7109H13.3459H12.8366C12.6799 29.5548 12.6016 29.4377 12.6016 29.3596C12.6016 28.9692 13.3589 27.8501 14.8736 26.0022C15.8921 24.8311 17.6158 23.1394 20.0445 20.9272C22.4733 18.7149 23.9749 17.3095 24.5494 16.7109C24.8628 16.2945 24.9542 16.0863 24.8237 16.0863Z" fill="white"/>
<path d="M34.8928 39H34.8145C34.5011 39 34.2661 38.8178 34.1094 38.4535V19.4805L34.1485 0.507507C34.4097 0.16917 34.6578 0 34.8928 0C35.2323 0 35.4935 0.195194 35.6763 0.585587V38.4535C35.4674 38.8178 35.2323 39 34.9712 39H34.8928Z" fill="white"/>
</g>
<defs>
<clipPath id="clip0_21_178">
<rect width="40" height="39" fill="white"/>
</clipPath>
</defs>
</svg>
