<svg width="994" height="715" viewBox="0 0 994 715" fill="none" xmlns="http://www.w3.org/2000/svg">
<path d="M0.226562 46.8593C0.226562 21.1352 21.0805 0.28125 46.8046 0.28125H947.313C973.037 0.28125 993.891 21.1352 993.891 46.8593C993.891 72.5834 973.037 93.4373 947.313 93.4373H46.8046C21.0805 93.4373 0.226562 72.5834 0.226562 46.8593Z" fill="white"/>
<path d="M0.226562 357.383C0.226562 331.659 21.0805 310.805 46.8046 310.805H947.313C973.037 310.805 993.891 331.659 993.891 357.383C993.891 383.106 973.037 403.961 947.313 403.961H46.8046C21.0805 403.961 0.226562 383.106 0.226562 357.383Z" fill="white"/>
<path d="M46.8046 621.32C21.0805 621.32 0.226562 642.175 0.226562 667.898C0.226562 693.622 21.0805 714.476 46.8046 714.476H947.313C973.037 714.476 993.891 693.622 993.891 667.898C993.891 642.175 973.037 621.32 947.313 621.32H46.8046Z" fill="white"/>
</svg>
