<svg width="35" height="35" viewBox="0 0 35 35" fill="none" xmlns="http://www.w3.org/2000/svg">
<mask id="mask0_84_29" style="mask-type:alpha" maskUnits="userSpaceOnUse" x="0" y="0" width="35" height="35">
<rect width="34.7782" height="34.7782" fill="#D9D9D9"/>
</mask>
<g mask="url(#mask0_84_29)">
<path d="M7.24168 23.0925C5.64768 23.0925 4.28312 22.5249 3.148 21.3898C2.01287 20.2547 1.44531 18.8901 1.44531 17.2961C1.44531 15.7021 2.01287 14.3376 3.148 13.2024C4.28312 12.0673 5.64768 11.4997 7.24168 11.4997C8.83568 11.4997 10.2002 12.0673 11.3354 13.2024C12.4705 14.3376 13.038 15.7021 13.038 17.2961C13.038 18.8901 12.4705 20.2547 11.3354 21.3898C10.2002 22.5249 8.83568 23.0925 7.24168 23.0925ZM24.6308 25.9907C22.2156 25.9907 20.1628 25.1454 18.4721 23.4548C16.7815 21.7641 15.9362 19.7113 15.9362 17.2961C15.9362 14.881 16.7815 12.8281 18.4721 11.1375C20.1628 9.44687 22.2156 8.60156 24.6308 8.60156C27.0459 8.60156 29.0988 9.44687 30.7894 11.1375C32.48 12.8281 33.3253 14.881 33.3253 17.2961C33.3253 19.7113 32.48 21.7641 30.7894 23.4548C29.0988 25.1454 27.0459 25.9907 24.6308 25.9907ZM24.6308 23.0925C26.2248 23.0925 27.5894 22.5249 28.7245 21.3898C29.8596 20.2547 30.4272 18.8901 30.4272 17.2961C30.4272 15.7021 29.8596 14.3376 28.7245 13.2024C27.5894 12.0673 26.2248 11.4997 24.6308 11.4997C23.0368 11.4997 21.6722 12.0673 20.5371 13.2024C19.402 14.3376 18.8344 15.7021 18.8344 17.2961C18.8344 18.8901 19.402 20.2547 20.5371 21.3898C21.6722 22.5249 23.0368 23.0925 24.6308 23.0925Z" fill="#DADADA"/>
</g>
</svg>
