<svg width="36" height="35" viewBox="0 0 36 35" fill="none" xmlns="http://www.w3.org/2000/svg">
<mask id="mask0_84_26" style="mask-type:alpha" maskUnits="userSpaceOnUse" x="0" y="0" width="36" height="35">
<rect x="0.53125" width="34.7782" height="34.7782" fill="#D9D9D9"/>
</mask>
<g mask="url(#mask0_84_26)">
<path d="M7.39793 23.0925C5.80393 23.0925 4.43937 22.5249 3.30425 21.3898C2.16912 20.2547 1.60156 18.8901 1.60156 17.2961C1.60156 15.7021 2.16912 14.3376 3.30425 13.2024C4.43937 12.0673 5.80393 11.4997 7.39793 11.4997C8.99193 11.4997 10.3565 12.0673 11.4916 13.2024C12.6267 14.3376 13.1943 15.7021 13.1943 17.2961C13.1943 18.8901 12.6267 20.2547 11.4916 21.3898C10.3565 22.5249 8.99193 23.0925 7.39793 23.0925ZM7.39793 20.1943C8.19493 20.1943 8.87721 19.9105 9.44477 19.343C10.0123 18.7754 10.2961 18.0931 10.2961 17.2961C10.2961 16.4991 10.0123 15.8168 9.44477 15.2493C8.87721 14.6817 8.19493 14.3979 7.39793 14.3979C6.60093 14.3979 5.91865 14.6817 5.35109 15.2493C4.78353 15.8168 4.49975 16.4991 4.49975 17.2961C4.49975 18.0931 4.78353 18.7754 5.35109 19.343C5.91865 19.9105 6.60093 20.1943 7.39793 20.1943ZM24.787 25.9907C22.3719 25.9907 20.319 25.1454 18.6284 23.4548C16.9378 21.7641 16.0925 19.7113 16.0925 17.2961C16.0925 14.881 16.9378 12.8281 18.6284 11.1375C20.319 9.44687 22.3719 8.60156 24.787 8.60156C27.2022 8.60156 29.2551 9.44687 30.9457 11.1375C32.6363 12.8281 33.4816 14.881 33.4816 17.2961C33.4816 19.7113 32.6363 21.7641 30.9457 23.4548C29.2551 25.1454 27.2022 25.9907 24.787 25.9907Z" fill="#DADADA"/>
</g>
</svg>
