<svg width="50" height="36" viewBox="0 0 50 36" fill="none" xmlns="http://www.w3.org/2000/svg">
<g clip-path="url(#clip0_24_38)">
<path d="M7.27257 6.192L6.82891 6.372C6.51038 6.492 6.05534 6.612 5.46379 6.732C4.87224 6.852 4.21243 6.936 3.48437 6.984H2.83594V5.328H3.48437C4.55371 5.28 5.54342 5.1 6.4535 4.788C7.36358 4.476 8.00063 4.188 8.36466 3.924C8.7287 3.66 9.04722 3.396 9.32025 3.132C9.36575 3.06 9.50226 3.024 9.72978 3.024C9.93455 3.024 10.1279 3.096 10.31 3.24V14.004L10.3441 24.804C10.5033 24.972 10.6399 25.08 10.7536 25.128C10.8674 25.176 11.1404 25.224 11.5727 25.272C12.005 25.32 12.7103 25.344 13.6886 25.344H14.5759V27H14.2005C13.7228 26.928 11.914 26.892 8.7742 26.892C5.67993 26.892 3.8939 26.928 3.41611 27H3.00658V25.344H3.8939C4.39445 25.344 4.82673 25.344 5.19077 25.344C5.5548 25.344 5.8392 25.332 6.04396 25.308C6.24873 25.284 6.43075 25.248 6.59001 25.2C6.74927 25.152 6.84028 25.128 6.86303 25.128C6.88579 25.128 6.95404 25.068 7.0678 24.948C7.18156 24.828 7.24982 24.78 7.27257 24.804V6.192Z" fill="white"/>
<path d="M31.5015 0C31.7063 0 31.8769 0.0720024 32.0134 0.216003C32.1499 0.360001 32.2182 0.528 32.2182 0.720001C32.2182 0.84 30.2502 6.624 26.3141 18.072C22.378 29.52 20.3417 35.376 20.2052 35.64C20.0459 35.88 19.8525 36 19.625 36C19.4657 36 19.3178 35.94 19.1813 35.82C19.0448 35.7 18.9766 35.532 18.9766 35.316C18.9766 35.076 20.956 29.22 24.9148 17.748C28.8737 6.276 30.8872 0.480003 30.9555 0.360001C31.0465 0.120003 31.2285 0 31.5015 0Z" fill="white"/>
<path d="M45.976 14.8344C45.7485 14.8344 45.1456 14.7024 44.1673 14.4384C43.1889 14.1744 42.4722 14.0424 42.0172 14.0424C41.5622 14.0424 41.1754 14.0904 40.8569 14.1864C40.5383 14.2824 40.2767 14.4024 40.0719 14.5464C39.8671 14.6904 39.7306 14.8224 39.6624 14.9424C39.5941 15.0624 39.5145 15.1944 39.4235 15.3384L39.3552 15.4824C39.287 15.5544 39.1163 15.5904 38.8433 15.5904C38.3655 15.5904 38.1266 15.4944 38.1266 15.3024C38.1266 15.1824 38.1607 15.0144 38.229 14.7984C38.5248 13.8624 39.0139 13.0584 39.6965 12.3864C40.3791 11.7144 41.1299 11.3064 41.9489 11.1624C42.222 11.1144 42.4154 11.0904 42.5291 11.0904C43.0979 11.0904 43.6098 11.2944 44.0649 11.7024C44.5199 12.1104 44.9522 12.5064 45.3617 12.8904C45.7713 13.2744 46.2036 13.4784 46.6586 13.5024C47.1591 13.5024 47.6597 13.1064 48.1602 12.3144C48.6608 11.5224 48.9224 11.1264 48.9452 11.1264C48.9679 11.1024 49.1386 11.0904 49.4571 11.0904H49.9008C50.0373 11.2344 50.1055 11.3304 50.1055 11.3784C50.1055 11.4744 50.0486 11.6424 49.9349 11.8824C49.8211 12.1224 49.6619 12.3744 49.4571 12.6384C49.2523 12.9024 49.0589 13.1664 48.8769 13.4304C48.6949 13.6944 48.5356 13.9224 48.3991 14.1144L48.1602 14.4384C47.1819 15.6624 45.6348 17.2824 43.5188 19.2984C41.4029 21.3144 40.0947 22.6104 39.5941 23.1864L39.1846 23.6184L39.6965 23.6544C40.197 23.6544 40.9251 23.7864 41.8807 24.0504C42.8363 24.3144 43.553 24.4464 44.0308 24.4464C44.8953 24.4464 45.6916 24.2184 46.4197 23.7624C47.1478 23.3064 47.6256 22.7064 47.8531 21.9624C47.9441 21.7464 48.0237 21.6144 48.092 21.5664C48.1602 21.5184 48.3309 21.4944 48.6039 21.4944C49.0362 21.4944 49.2523 21.6144 49.2523 21.8544C49.2523 21.9744 49.2409 22.0824 49.2182 22.1784C48.8314 23.6664 48.0806 24.9024 46.9658 25.8864C45.8509 26.8704 44.7361 27.3744 43.6212 27.3984C43.0297 27.3984 42.5064 27.1944 42.0513 26.7864C41.5963 26.3784 41.1526 25.9704 40.7203 25.5624C40.2881 25.1544 39.8558 24.9504 39.4235 24.9504C38.4224 24.9504 37.5237 25.6704 36.7274 27.1104C36.5909 27.3024 36.3975 27.3984 36.1472 27.3984H35.9766H35.5329C35.3964 27.2544 35.3281 27.1464 35.3281 27.0744C35.3281 26.7144 35.9879 25.6824 37.3075 23.9784C38.1949 22.8984 39.6965 21.3384 41.8124 19.2984C43.9284 17.2584 45.2366 15.9624 45.7371 15.4104C46.0102 15.0264 46.0898 14.8344 45.976 14.8344Z" fill="white"/>
</g>
<defs>
<clipPath id="clip0_24_38">
<rect width="50" height="36" fill="white"/>
</clipPath>
</defs>
</svg>
